<mxfile host="Electron" modified="2023-10-30T15:00:17.049Z" agent="Mozilla/5.0 (Windows NT 10.0; Win64; x64) AppleWebKit/537.36 (KHTML, like Gecko) draw.io/21.6.8 Chrome/114.0.5735.289 Electron/25.5.0 Safari/537.36" etag="Wq8Lgqz4pi4kVqgnfvYM" version="21.6.8" type="device">
  <diagram name="Page-1" id="Ep-rBEBu9i-zhScw6Q2F">
    <mxGraphModel dx="792" dy="1228" grid="1" gridSize="10" guides="1" tooltips="1" connect="1" arrows="1" fold="1" page="1" pageScale="1" pageWidth="1654" pageHeight="1169" math="0" shadow="0">
      <root>
        <mxCell id="0" />
        <mxCell id="1" parent="0" />
        <mxCell id="YMKPgj_rCCSZqRhJTCPQ-10" value="&lt;p style=&quot;margin: 4px 0px 0px 10px; text-align: left; font-size: 14px;&quot;&gt;&lt;b&gt;OD&lt;/b&gt;&amp;nbsp;Player&lt;/p&gt;" style="html=1;shape=mxgraph.sysml.package;html=1;overflow=fill;whiteSpace=wrap;labelX=110.67;" parent="1" vertex="1">
          <mxGeometry x="60" y="210" width="1140" height="950" as="geometry" />
        </mxCell>
        <mxCell id="7fUS-XPvCDWqlLP2ySKz-1" value="sendReady(PlayerNum)" style="edgeStyle=orthogonalEdgeStyle;rounded=0;orthogonalLoop=1;jettySize=auto;html=1;" parent="1" source="YMKPgj_rCCSZqRhJTCPQ-4" target="YMKPgj_rCCSZqRhJTCPQ-2" edge="1">
          <mxGeometry x="-0.641" y="10" relative="1" as="geometry">
            <Array as="points">
              <mxPoint x="770" y="590" />
            </Array>
            <mxPoint as="offset" />
          </mxGeometry>
        </mxCell>
        <mxCell id="YMKPgj_rCCSZqRhJTCPQ-12" value="start,&lt;br&gt;gameData" style="edgeStyle=orthogonalEdgeStyle;rounded=0;orthogonalLoop=1;jettySize=auto;html=1;" parent="1" source="YMKPgj_rCCSZqRhJTCPQ-2" target="YMKPgj_rCCSZqRhJTCPQ-3" edge="1">
          <mxGeometry x="-0.7143" y="20" relative="1" as="geometry">
            <Array as="points">
              <mxPoint x="520" y="390" />
            </Array>
            <mxPoint as="offset" />
          </mxGeometry>
        </mxCell>
        <mxCell id="YMKPgj_rCCSZqRhJTCPQ-26" value="begin(ssid, passw),&lt;br&gt;TCPClient.connect(ip, port)" style="edgeStyle=orthogonalEdgeStyle;rounded=0;orthogonalLoop=1;jettySize=auto;html=1;" parent="1" source="YMKPgj_rCCSZqRhJTCPQ-2" target="YMKPgj_rCCSZqRhJTCPQ-25" edge="1">
          <mxGeometry y="-80" relative="1" as="geometry">
            <mxPoint as="offset" />
          </mxGeometry>
        </mxCell>
        <mxCell id="YMKPgj_rCCSZqRhJTCPQ-34" value="startGame" style="edgeStyle=orthogonalEdgeStyle;rounded=0;orthogonalLoop=1;jettySize=auto;html=1;jumpStyle=none;" parent="1" source="YMKPgj_rCCSZqRhJTCPQ-2" target="YMKPgj_rCCSZqRhJTCPQ-4" edge="1">
          <mxGeometry x="-0.907" y="30" relative="1" as="geometry">
            <Array as="points">
              <mxPoint x="790" y="610" />
            </Array>
            <mxPoint as="offset" />
          </mxGeometry>
        </mxCell>
        <mxCell id="YMKPgj_rCCSZqRhJTCPQ-2" value="&amp;lt;&amp;lt;control&amp;gt;&amp;gt;&lt;br&gt;ConnectControl" style="rounded=1;whiteSpace=wrap;html=1;" parent="1" vertex="1">
          <mxGeometry x="710" y="330" width="120" height="80" as="geometry" />
        </mxCell>
        <mxCell id="YMKPgj_rCCSZqRhJTCPQ-15" value="CheckConnection,&lt;br&gt;GetGameData" style="edgeStyle=orthogonalEdgeStyle;rounded=0;orthogonalLoop=1;jettySize=auto;html=1;" parent="1" source="YMKPgj_rCCSZqRhJTCPQ-3" target="YMKPgj_rCCSZqRhJTCPQ-2" edge="1">
          <mxGeometry x="0.7143" y="30" relative="1" as="geometry">
            <Array as="points">
              <mxPoint x="470" y="340" />
            </Array>
            <mxPoint as="offset" />
          </mxGeometry>
        </mxCell>
        <mxCell id="YMKPgj_rCCSZqRhJTCPQ-21" value="showText, showSymbol" style="edgeStyle=orthogonalEdgeStyle;rounded=0;orthogonalLoop=1;jettySize=auto;html=1;jumpStyle=arc;jumpSize=10;" parent="1" source="YMKPgj_rCCSZqRhJTCPQ-3" target="YMKPgj_rCCSZqRhJTCPQ-19" edge="1">
          <mxGeometry x="-0.1126" y="10" relative="1" as="geometry">
            <mxPoint as="offset" />
          </mxGeometry>
        </mxCell>
        <mxCell id="YMKPgj_rCCSZqRhJTCPQ-28" value="setGameData" style="edgeStyle=orthogonalEdgeStyle;rounded=0;orthogonalLoop=1;jettySize=auto;html=1;" parent="1" source="YMKPgj_rCCSZqRhJTCPQ-3" target="YMKPgj_rCCSZqRhJTCPQ-14" edge="1">
          <mxGeometry x="-0.5789" y="10" relative="1" as="geometry">
            <Array as="points">
              <mxPoint x="260" y="510" />
            </Array>
            <mxPoint as="offset" />
          </mxGeometry>
        </mxCell>
        <mxCell id="YMKPgj_rCCSZqRhJTCPQ-29" value="start" style="edgeStyle=orthogonalEdgeStyle;rounded=0;orthogonalLoop=1;jettySize=auto;html=1;" parent="1" source="YMKPgj_rCCSZqRhJTCPQ-3" target="YMKPgj_rCCSZqRhJTCPQ-4" edge="1">
          <mxGeometry x="-0.1429" y="20" relative="1" as="geometry">
            <mxPoint as="offset" />
          </mxGeometry>
        </mxCell>
        <mxCell id="YMKPgj_rCCSZqRhJTCPQ-3" value="&amp;lt;&amp;lt;control&amp;gt;&amp;gt;&lt;br&gt;GameSetupControl" style="rounded=1;whiteSpace=wrap;html=1;" parent="1" vertex="1">
          <mxGeometry x="440" y="470" width="120" height="60" as="geometry" />
        </mxCell>
        <mxCell id="YMKPgj_rCCSZqRhJTCPQ-33" value="setRGB(r, g, b)" style="edgeStyle=orthogonalEdgeStyle;rounded=0;orthogonalLoop=1;jettySize=auto;html=1;jumpStyle=none;" parent="1" source="YMKPgj_rCCSZqRhJTCPQ-4" target="YMKPgj_rCCSZqRhJTCPQ-32" edge="1">
          <mxGeometry x="-0.8285" y="-10" relative="1" as="geometry">
            <Array as="points">
              <mxPoint x="870" y="650" />
              <mxPoint x="870" y="710" />
            </Array>
            <mxPoint as="offset" />
          </mxGeometry>
        </mxCell>
        <mxCell id="YMKPgj_rCCSZqRhJTCPQ-35" value="getTeamColor" style="edgeStyle=orthogonalEdgeStyle;rounded=0;orthogonalLoop=1;jettySize=auto;html=1;" parent="1" source="YMKPgj_rCCSZqRhJTCPQ-4" target="YMKPgj_rCCSZqRhJTCPQ-14" edge="1">
          <mxGeometry x="-0.1667" y="10" relative="1" as="geometry">
            <Array as="points">
              <mxPoint x="380" y="610" />
              <mxPoint x="380" y="610" />
            </Array>
            <mxPoint as="offset" />
          </mxGeometry>
        </mxCell>
        <mxCell id="YMKPgj_rCCSZqRhJTCPQ-36" value="start" style="edgeStyle=orthogonalEdgeStyle;rounded=0;orthogonalLoop=1;jettySize=auto;html=1;" parent="1" source="YMKPgj_rCCSZqRhJTCPQ-4" target="YMKPgj_rCCSZqRhJTCPQ-5" edge="1">
          <mxGeometry y="20" relative="1" as="geometry">
            <mxPoint x="500" y="710" as="targetPoint" />
            <mxPoint as="offset" />
          </mxGeometry>
        </mxCell>
        <mxCell id="YMKPgj_rCCSZqRhJTCPQ-4" value="&amp;lt;&amp;lt;control&amp;gt;&amp;gt;&lt;br&gt;ReadyUpControl&lt;br&gt;" style="rounded=1;whiteSpace=wrap;html=1;" parent="1" vertex="1">
          <mxGeometry x="440" y="560" width="120" height="100" as="geometry" />
        </mxCell>
        <mxCell id="YMKPgj_rCCSZqRhJTCPQ-38" value="setGameTime,&lt;br&gt;setHealth,&lt;br&gt;setAmmo,&lt;br&gt;setShotsTaken" style="edgeStyle=orthogonalEdgeStyle;rounded=0;orthogonalLoop=1;jettySize=auto;html=1;" parent="1" source="YMKPgj_rCCSZqRhJTCPQ-5" target="YMKPgj_rCCSZqRhJTCPQ-14" edge="1">
          <mxGeometry x="-0.5652" y="-30" relative="1" as="geometry">
            <Array as="points">
              <mxPoint x="290" y="730" />
            </Array>
            <mxPoint as="offset" />
          </mxGeometry>
        </mxCell>
        <mxCell id="YMKPgj_rCCSZqRhJTCPQ-46" style="edgeStyle=orthogonalEdgeStyle;rounded=0;orthogonalLoop=1;jettySize=auto;html=1;endArrow=none;endFill=0;jumpStyle=arc;jumpSize=10;" parent="1" source="YMKPgj_rCCSZqRhJTCPQ-5" edge="1">
          <mxGeometry relative="1" as="geometry">
            <mxPoint x="700" y="500" as="targetPoint" />
            <Array as="points">
              <mxPoint x="700" y="730" />
            </Array>
          </mxGeometry>
        </mxCell>
        <mxCell id="YMKPgj_rCCSZqRhJTCPQ-53" value="init(ammo)" style="edgeStyle=orthogonalEdgeStyle;rounded=0;orthogonalLoop=1;jettySize=auto;html=1;" parent="1" source="YMKPgj_rCCSZqRhJTCPQ-5" target="YMKPgj_rCCSZqRhJTCPQ-6" edge="1">
          <mxGeometry x="-0.3" y="10" relative="1" as="geometry">
            <Array as="points">
              <mxPoint x="540" y="780" />
            </Array>
            <mxPoint as="offset" />
          </mxGeometry>
        </mxCell>
        <mxCell id="YMKPgj_rCCSZqRhJTCPQ-63" style="edgeStyle=orthogonalEdgeStyle;rounded=0;orthogonalLoop=1;jettySize=auto;html=1;endArrow=none;endFill=0;" parent="1" source="YMKPgj_rCCSZqRhJTCPQ-5" edge="1">
          <mxGeometry relative="1" as="geometry">
            <mxPoint x="240" y="740" as="targetPoint" />
            <Array as="points">
              <mxPoint x="240" y="750" />
            </Array>
          </mxGeometry>
        </mxCell>
        <mxCell id="_WCKxBYvnZlgV7QHfADm-3" value="init()" style="edgeStyle=orthogonalEdgeStyle;rounded=0;orthogonalLoop=1;jettySize=auto;html=1;" parent="1" source="YMKPgj_rCCSZqRhJTCPQ-5" target="YMKPgj_rCCSZqRhJTCPQ-7" edge="1">
          <mxGeometry x="0.01" y="10" relative="1" as="geometry">
            <Array as="points">
              <mxPoint x="500" y="850" />
            </Array>
            <mxPoint as="offset" />
          </mxGeometry>
        </mxCell>
        <mxCell id="YMKPgj_rCCSZqRhJTCPQ-5" value="&amp;lt;&amp;lt;control&amp;gt;&amp;gt;&lt;br&gt;GameStateControl" style="rounded=1;whiteSpace=wrap;html=1;" parent="1" vertex="1">
          <mxGeometry x="440" y="700" width="120" height="60" as="geometry" />
        </mxCell>
        <mxCell id="YMKPgj_rCCSZqRhJTCPQ-52" value="setAmmo, setShotsTaken" style="edgeStyle=orthogonalEdgeStyle;rounded=0;orthogonalLoop=1;jettySize=auto;html=1;" parent="1" source="YMKPgj_rCCSZqRhJTCPQ-6" target="YMKPgj_rCCSZqRhJTCPQ-5" edge="1">
          <mxGeometry x="0.1818" y="10" relative="1" as="geometry">
            <Array as="points">
              <mxPoint x="530" y="800" />
            </Array>
            <mxPoint as="offset" />
          </mxGeometry>
        </mxCell>
        <mxCell id="YMKPgj_rCCSZqRhJTCPQ-59" value="sendMessage(SHOOT, damage, &lt;br&gt;playerNum, teamNum)" style="edgeStyle=orthogonalEdgeStyle;rounded=0;orthogonalLoop=1;jettySize=auto;html=1;" parent="1" source="YMKPgj_rCCSZqRhJTCPQ-6" target="YMKPgj_rCCSZqRhJTCPQ-58" edge="1">
          <mxGeometry x="0.1304" y="-20" relative="1" as="geometry">
            <Array as="points">
              <mxPoint x="890" y="760" />
              <mxPoint x="890" y="760" />
            </Array>
            <mxPoint as="offset" />
          </mxGeometry>
        </mxCell>
        <mxCell id="YMKPgj_rCCSZqRhJTCPQ-67" style="edgeStyle=orthogonalEdgeStyle;rounded=0;orthogonalLoop=1;jettySize=auto;html=1;endArrow=none;endFill=0;startArrow=classic;startFill=1;" parent="1" source="YMKPgj_rCCSZqRhJTCPQ-6" edge="1">
          <mxGeometry relative="1" as="geometry">
            <mxPoint x="680" y="930" as="targetPoint" />
            <Array as="points">
              <mxPoint x="770" y="830" />
              <mxPoint x="680" y="830" />
            </Array>
          </mxGeometry>
        </mxCell>
        <mxCell id="YMKPgj_rCCSZqRhJTCPQ-6" value="&amp;lt;&amp;lt;control&amp;gt;&amp;gt;&lt;br&gt;ShootingControl" style="rounded=1;whiteSpace=wrap;html=1;" parent="1" vertex="1">
          <mxGeometry x="710" y="750" width="120" height="60" as="geometry" />
        </mxCell>
        <mxCell id="YMKPgj_rCCSZqRhJTCPQ-40" value="playSound(ID)" style="edgeStyle=orthogonalEdgeStyle;rounded=0;orthogonalLoop=1;jettySize=auto;html=1;" parent="1" source="YMKPgj_rCCSZqRhJTCPQ-7" target="YMKPgj_rCCSZqRhJTCPQ-22" edge="1">
          <mxGeometry x="0.4737" y="10" relative="1" as="geometry">
            <Array as="points">
              <mxPoint x="860" y="880" />
              <mxPoint x="860" y="970" />
            </Array>
            <mxPoint as="offset" />
          </mxGeometry>
        </mxCell>
        <mxCell id="YMKPgj_rCCSZqRhJTCPQ-60" value="decrementHealth(amount)" style="edgeStyle=orthogonalEdgeStyle;rounded=0;orthogonalLoop=1;jettySize=auto;html=1;jumpStyle=arc;jumpSize=10;" parent="1" source="YMKPgj_rCCSZqRhJTCPQ-7" target="YMKPgj_rCCSZqRhJTCPQ-5" edge="1">
          <mxGeometry x="-0.1987" y="-10" relative="1" as="geometry">
            <Array as="points">
              <mxPoint x="490" y="870" />
            </Array>
            <mxPoint as="offset" />
          </mxGeometry>
        </mxCell>
        <mxCell id="YMKPgj_rCCSZqRhJTCPQ-7" value="&amp;lt;&amp;lt;control&amp;gt;&amp;gt;&lt;br&gt;ReceivingHitControl" style="rounded=1;whiteSpace=wrap;html=1;" parent="1" vertex="1">
          <mxGeometry x="707" y="840" width="120" height="70" as="geometry" />
        </mxCell>
        <mxCell id="YMKPgj_rCCSZqRhJTCPQ-48" style="edgeStyle=orthogonalEdgeStyle;rounded=0;orthogonalLoop=1;jettySize=auto;html=1;endArrow=none;endFill=0;" parent="1" source="YMKPgj_rCCSZqRhJTCPQ-8" edge="1">
          <mxGeometry relative="1" as="geometry">
            <mxPoint x="860" y="890" as="targetPoint" />
            <Array as="points">
              <mxPoint x="860" y="1070" />
            </Array>
          </mxGeometry>
        </mxCell>
        <mxCell id="YMKPgj_rCCSZqRhJTCPQ-65" value="GameOver(playerNum)" style="edgeStyle=orthogonalEdgeStyle;rounded=0;orthogonalLoop=1;jettySize=auto;html=1;jumpStyle=arc;jumpSize=10;" parent="1" source="YMKPgj_rCCSZqRhJTCPQ-8" target="YMKPgj_rCCSZqRhJTCPQ-2" edge="1">
          <mxGeometry x="-0.8613" y="10" relative="1" as="geometry">
            <Array as="points">
              <mxPoint x="480" y="1110" />
              <mxPoint x="110" y="1110" />
              <mxPoint x="110" y="370" />
            </Array>
            <mxPoint as="offset" />
          </mxGeometry>
        </mxCell>
        <mxCell id="YMKPgj_rCCSZqRhJTCPQ-66" value="disable" style="edgeStyle=orthogonalEdgeStyle;rounded=0;orthogonalLoop=1;jettySize=auto;html=1;" parent="1" source="YMKPgj_rCCSZqRhJTCPQ-8" target="YMKPgj_rCCSZqRhJTCPQ-7" edge="1">
          <mxGeometry x="-0.1281" y="-20" relative="1" as="geometry">
            <Array as="points">
              <mxPoint x="680" y="1050" />
              <mxPoint x="680" y="930" />
              <mxPoint x="767" y="930" />
            </Array>
            <mxPoint as="offset" />
          </mxGeometry>
        </mxCell>
        <mxCell id="YMKPgj_rCCSZqRhJTCPQ-70" value="getGameTime,&lt;br&gt;getHits,&lt;br&gt;getHealth,&lt;br&gt;getShotsTaken" style="edgeStyle=orthogonalEdgeStyle;rounded=0;orthogonalLoop=1;jettySize=auto;html=1;endArrow=none;endFill=0;" parent="1" source="YMKPgj_rCCSZqRhJTCPQ-8" edge="1">
          <mxGeometry x="0.3105" y="-40" relative="1" as="geometry">
            <mxPoint x="240" y="940" as="targetPoint" />
            <Array as="points">
              <mxPoint x="450" y="990" />
              <mxPoint x="240" y="990" />
            </Array>
            <mxPoint as="offset" />
          </mxGeometry>
        </mxCell>
        <mxCell id="YMKPgj_rCCSZqRhJTCPQ-71" value="start" style="edgeStyle=orthogonalEdgeStyle;rounded=0;orthogonalLoop=1;jettySize=auto;html=1;" parent="1" source="YMKPgj_rCCSZqRhJTCPQ-8" target="YMKPgj_rCCSZqRhJTCPQ-9" edge="1">
          <mxGeometry x="-0.2" y="-10" relative="1" as="geometry">
            <mxPoint as="offset" />
          </mxGeometry>
        </mxCell>
        <mxCell id="YMKPgj_rCCSZqRhJTCPQ-8" value="&amp;lt;&amp;lt;control&amp;gt;&amp;gt;&lt;br&gt;GameOverControl" style="rounded=1;whiteSpace=wrap;html=1;" parent="1" vertex="1">
          <mxGeometry x="420" y="1020" width="120" height="60" as="geometry" />
        </mxCell>
        <mxCell id="YMKPgj_rCCSZqRhJTCPQ-62" value="getGameTime,&lt;br&gt;getHealth,&lt;br style=&quot;border-color: var(--border-color);&quot;&gt;getAmmo,&lt;br style=&quot;border-color: var(--border-color);&quot;&gt;getShotsTaken" style="edgeStyle=orthogonalEdgeStyle;rounded=0;orthogonalLoop=1;jettySize=auto;html=1;" parent="1" source="YMKPgj_rCCSZqRhJTCPQ-9" target="YMKPgj_rCCSZqRhJTCPQ-14" edge="1">
          <mxGeometry x="0.2308" y="-50" relative="1" as="geometry">
            <Array as="points">
              <mxPoint x="240" y="750" />
              <mxPoint x="240" y="750" />
            </Array>
            <mxPoint as="offset" />
          </mxGeometry>
        </mxCell>
        <mxCell id="YMKPgj_rCCSZqRhJTCPQ-73" value="SendPostGameData(Hits, Health, ShotsTaken)" style="edgeStyle=orthogonalEdgeStyle;rounded=0;orthogonalLoop=1;jettySize=auto;html=1;endArrow=none;endFill=0;" parent="1" source="YMKPgj_rCCSZqRhJTCPQ-9" edge="1">
          <mxGeometry relative="1" as="geometry">
            <mxPoint x="285" y="1110" as="targetPoint" />
          </mxGeometry>
        </mxCell>
        <mxCell id="YMKPgj_rCCSZqRhJTCPQ-9" value="&amp;lt;&amp;lt;control&amp;gt;&amp;gt;&lt;br&gt;SendPostGameDataControl" style="rounded=1;whiteSpace=wrap;html=1;" parent="1" vertex="1">
          <mxGeometry x="200" y="1020" width="170" height="60" as="geometry" />
        </mxCell>
        <mxCell id="YMKPgj_rCCSZqRhJTCPQ-14" value="&amp;lt;&amp;lt;entity&amp;gt;&amp;gt;&lt;br&gt;GameData" style="rounded=1;whiteSpace=wrap;html=1;" parent="1" vertex="1">
          <mxGeometry x="170" y="570" width="150" height="60" as="geometry" />
        </mxCell>
        <mxCell id="YMKPgj_rCCSZqRhJTCPQ-16" value="&amp;lt;&amp;lt;boundary&amp;gt;&amp;gt;&lt;br&gt;Display" style="rounded=1;whiteSpace=wrap;html=1;" parent="1" vertex="1">
          <mxGeometry x="1060" y="470" width="120" height="60" as="geometry" />
        </mxCell>
        <mxCell id="YMKPgj_rCCSZqRhJTCPQ-30" value="buttonPressed" style="edgeStyle=orthogonalEdgeStyle;rounded=0;orthogonalLoop=1;jettySize=auto;html=1;jumpStyle=arc;jumpSize=10;" parent="1" source="YMKPgj_rCCSZqRhJTCPQ-17" target="YMKPgj_rCCSZqRhJTCPQ-4" edge="1">
          <mxGeometry x="-0.4815" y="-10" relative="1" as="geometry">
            <Array as="points">
              <mxPoint x="1000" y="590" />
              <mxPoint x="1000" y="630" />
            </Array>
            <mxPoint as="offset" />
          </mxGeometry>
        </mxCell>
        <mxCell id="YMKPgj_rCCSZqRhJTCPQ-17" value="&amp;lt;&amp;lt;boundary&amp;gt;&amp;gt;&lt;br&gt;TriggerButton" style="rounded=1;whiteSpace=wrap;html=1;" parent="1" vertex="1">
          <mxGeometry x="1060" y="550" width="120" height="60" as="geometry" />
        </mxCell>
        <mxCell id="YMKPgj_rCCSZqRhJTCPQ-51" style="edgeStyle=orthogonalEdgeStyle;rounded=0;orthogonalLoop=1;jettySize=auto;html=1;endArrow=none;endFill=0;" parent="1" source="YMKPgj_rCCSZqRhJTCPQ-18" edge="1">
          <mxGeometry relative="1" as="geometry">
            <mxPoint x="1000" y="630" as="targetPoint" />
            <Array as="points">
              <mxPoint x="1000" y="640" />
            </Array>
          </mxGeometry>
        </mxCell>
        <mxCell id="YMKPgj_rCCSZqRhJTCPQ-18" value="&amp;lt;&amp;lt;boundary&amp;gt;&amp;gt;&lt;br&gt;ReloadButton" style="rounded=1;whiteSpace=wrap;html=1;" parent="1" vertex="1">
          <mxGeometry x="1060" y="620" width="120" height="60" as="geometry" />
        </mxCell>
        <mxCell id="YMKPgj_rCCSZqRhJTCPQ-20" value="PutPixel" style="edgeStyle=orthogonalEdgeStyle;rounded=0;orthogonalLoop=1;jettySize=auto;html=1;" parent="1" source="YMKPgj_rCCSZqRhJTCPQ-19" target="YMKPgj_rCCSZqRhJTCPQ-16" edge="1">
          <mxGeometry x="-0.2" y="10" relative="1" as="geometry">
            <Array as="points">
              <mxPoint x="1013" y="500" />
              <mxPoint x="1013" y="500" />
            </Array>
            <mxPoint as="offset" />
          </mxGeometry>
        </mxCell>
        <mxCell id="YMKPgj_rCCSZqRhJTCPQ-19" value="&amp;lt;&amp;lt;control&amp;gt;&amp;gt;&lt;br&gt;DisplayControl" style="rounded=1;whiteSpace=wrap;html=1;" parent="1" vertex="1">
          <mxGeometry x="853" y="470" width="120" height="60" as="geometry" />
        </mxCell>
        <mxCell id="YMKPgj_rCCSZqRhJTCPQ-24" value="start(freq), stop" style="edgeStyle=orthogonalEdgeStyle;rounded=0;orthogonalLoop=1;jettySize=auto;html=1;" parent="1" source="YMKPgj_rCCSZqRhJTCPQ-22" target="YMKPgj_rCCSZqRhJTCPQ-23" edge="1">
          <mxGeometry x="-0.4286" relative="1" as="geometry">
            <Array as="points">
              <mxPoint x="1120" y="1040" />
              <mxPoint x="1120" y="1040" />
            </Array>
            <mxPoint as="offset" />
          </mxGeometry>
        </mxCell>
        <mxCell id="YMKPgj_rCCSZqRhJTCPQ-22" value="&amp;lt;&amp;lt;control&amp;gt;&amp;gt;&lt;br&gt;SoundControl" style="rounded=1;whiteSpace=wrap;html=1;" parent="1" vertex="1">
          <mxGeometry x="1060" y="950" width="120" height="60" as="geometry" />
        </mxCell>
        <mxCell id="YMKPgj_rCCSZqRhJTCPQ-23" value="&amp;lt;&amp;lt;boundary&amp;gt;&amp;gt;&lt;br&gt;Speaker" style="rounded=1;whiteSpace=wrap;html=1;" parent="1" vertex="1">
          <mxGeometry x="1060" y="1050" width="120" height="60" as="geometry" />
        </mxCell>
        <mxCell id="YMKPgj_rCCSZqRhJTCPQ-25" value="&amp;lt;&amp;lt;boundary&amp;gt;&amp;gt;&lt;br&gt;WifiConnection" style="rounded=1;whiteSpace=wrap;html=1;" parent="1" vertex="1">
          <mxGeometry x="710" y="230" width="120" height="60" as="geometry" />
        </mxCell>
        <mxCell id="YMKPgj_rCCSZqRhJTCPQ-32" value="&amp;lt;&amp;lt;boundary&amp;gt;&amp;gt;&lt;br&gt;RGBLED" style="rounded=1;whiteSpace=wrap;html=1;" parent="1" vertex="1">
          <mxGeometry x="1060" y="690" width="120" height="40" as="geometry" />
        </mxCell>
        <mxCell id="YMKPgj_rCCSZqRhJTCPQ-54" value="&amp;lt;&amp;lt;boundary&amp;gt;&amp;gt;&lt;br&gt;MessageReceiver" style="rounded=1;whiteSpace=wrap;html=1;" parent="1" vertex="1">
          <mxGeometry x="1060" y="850" width="120" height="60" as="geometry" />
        </mxCell>
        <mxCell id="YMKPgj_rCCSZqRhJTCPQ-50" style="rounded=0;orthogonalLoop=1;jettySize=auto;html=1;strokeWidth=1;endArrow=none;endFill=0;targetPerimeterSpacing=0;sourcePerimeterSpacing=0;jumpStyle=arc;jumpSize=10;startArrow=classic;startFill=1;" parent="1" source="YMKPgj_rCCSZqRhJTCPQ-6" edge="1">
          <mxGeometry relative="1" as="geometry">
            <mxPoint x="770" y="630" as="targetPoint" />
          </mxGeometry>
        </mxCell>
        <mxCell id="YMKPgj_rCCSZqRhJTCPQ-42" style="edgeStyle=orthogonalEdgeStyle;rounded=0;orthogonalLoop=1;jettySize=auto;html=1;" parent="1" source="YMKPgj_rCCSZqRhJTCPQ-6" target="YMKPgj_rCCSZqRhJTCPQ-22" edge="1">
          <mxGeometry relative="1" as="geometry">
            <Array as="points">
              <mxPoint x="860" y="800" />
              <mxPoint x="860" y="970" />
            </Array>
          </mxGeometry>
        </mxCell>
        <mxCell id="YMKPgj_rCCSZqRhJTCPQ-56" value="hitReceived(playerNum, teamNum)" style="edgeStyle=orthogonalEdgeStyle;rounded=0;orthogonalLoop=1;jettySize=auto;html=1;jumpStyle=arc;jumpSize=10;" parent="1" source="YMKPgj_rCCSZqRhJTCPQ-54" target="YMKPgj_rCCSZqRhJTCPQ-7" edge="1">
          <mxGeometry x="-0.2275" y="-10" relative="1" as="geometry">
            <Array as="points">
              <mxPoint x="1000" y="870" />
              <mxPoint x="1000" y="870" />
            </Array>
            <mxPoint as="offset" />
          </mxGeometry>
        </mxCell>
        <mxCell id="YMKPgj_rCCSZqRhJTCPQ-58" value="&amp;lt;&amp;lt;boundary&amp;gt;&amp;gt;&lt;br&gt;MessageSender" style="rounded=1;whiteSpace=wrap;html=1;" parent="1" vertex="1">
          <mxGeometry x="1060" y="740" width="120" height="60" as="geometry" />
        </mxCell>
        <mxCell id="YMKPgj_rCCSZqRhJTCPQ-57" value="addHit(timestamp, playerNum)" style="edgeStyle=orthogonalEdgeStyle;rounded=0;orthogonalLoop=1;jettySize=auto;html=1;jumpStyle=arc;jumpSize=10;" parent="1" source="YMKPgj_rCCSZqRhJTCPQ-7" target="YMKPgj_rCCSZqRhJTCPQ-14" edge="1">
          <mxGeometry x="-0.6731" y="-10" relative="1" as="geometry">
            <Array as="points">
              <mxPoint x="190" y="890" />
            </Array>
            <mxPoint as="offset" />
          </mxGeometry>
        </mxCell>
        <mxCell id="YMKPgj_rCCSZqRhJTCPQ-61" value="start" style="edgeStyle=orthogonalEdgeStyle;rounded=0;orthogonalLoop=1;jettySize=auto;html=1;jumpStyle=arc;jumpSize=10;" parent="1" edge="1">
          <mxGeometry x="-0.6154" relative="1" as="geometry">
            <mxPoint x="470.0000000000002" y="760" as="sourcePoint" />
            <mxPoint x="470.0000000000002" y="1020" as="targetPoint" />
            <Array as="points">
              <mxPoint x="470" y="980" />
              <mxPoint x="470" y="980" />
            </Array>
            <mxPoint as="offset" />
          </mxGeometry>
        </mxCell>
        <mxCell id="YMKPgj_rCCSZqRhJTCPQ-68" value="showText, showSymbol" style="edgeStyle=orthogonalEdgeStyle;rounded=0;orthogonalLoop=1;jettySize=auto;html=1;jumpStyle=arc;jumpSize=10;endArrow=none;endFill=0;" parent="1" source="YMKPgj_rCCSZqRhJTCPQ-8" edge="1">
          <mxGeometry x="-0.7143" y="10" relative="1" as="geometry">
            <mxPoint x="660" y="730" as="targetPoint" />
            <Array as="points">
              <mxPoint x="660" y="1030" />
              <mxPoint x="660" y="730" />
            </Array>
            <mxPoint as="offset" />
          </mxGeometry>
        </mxCell>
        <mxCell id="_WCKxBYvnZlgV7QHfADm-2" style="edgeStyle=orthogonalEdgeStyle;rounded=0;orthogonalLoop=1;jettySize=auto;html=1;endArrow=none;endFill=0;" parent="1" source="YMKPgj_rCCSZqRhJTCPQ-4" edge="1">
          <mxGeometry relative="1" as="geometry">
            <mxPoint x="700" y="560" as="targetPoint" />
            <Array as="points">
              <mxPoint x="700" y="570" />
            </Array>
          </mxGeometry>
        </mxCell>
      </root>
    </mxGraphModel>
  </diagram>
</mxfile>
